<svg id="visual" viewBox="0 0 900 600" width="900" height="600" xmlns="http://www.w3.org/2000/svg" xmlns:xlink="http://www.w3.org/1999/xlink" version="1.1"><path d="M500 0L505.7 20C511.3 40 522.7 80 503.7 120C484.7 160 435.3 200 421.8 240C408.3 280 430.7 320 442.2 360C453.7 400 454.3 440 468 480C481.7 520 508.3 560 521.7 580L535 600L0 600L0 580C0 560 0 520 0 480C0 440 0 400 0 360C0 320 0 280 0 240C0 200 0 160 0 120C0 80 0 40 0 20L0 0Z" fill="#FFFFFF" stroke-linecap="round" stroke-linejoin="miter"></path></svg>